<?xml version="1.0" standalone="no"?>
<!DOCTYPE svg PUBLIC "-//W3C//DTD SVG 20010904//EN"
 "http://www.w3.org/TR/2001/REC-SVG-20010904/DTD/svg10.dtd">
<svg version="1.0" xmlns="http://www.w3.org/2000/svg"
 width="200.000000pt" height="200.000000pt" viewBox="0 0 200.000000 200.000000"
 preserveAspectRatio="xMidYMid meet">
<metadata>
Created by potrace 1.11, written by Peter Selinger 2001-2013
</metadata>
<g transform="translate(0.000000,200.000000) scale(0.100000,-0.100000)"
fill="#000000" stroke="none">
<path d="M601 1530 c-77 -18 -120 -73 -131 -166 -10 -84 -23 -120 -57 -151
-33 -32 -67 -45 -126 -48 -70 -5 -113 -22 -146 -60 -64 -73 -48 -185 33 -239
14 -9 60 -21 103 -27 83 -11 117 -25 146 -57 26 -29 46 -89 47 -142 1 -60 35
-119 85 -147 64 -36 136 -25 188 28 34 35 47 68 45 116 -2 90 -66 149 -171
157 -131 9 -190 72 -190 205 -1 150 54 204 208 205 66 1 87 -3 121 -23 57 -32
84 -83 84 -157 0 -116 61 -181 177 -189 64 -4 121 -22 141 -45 20 -23 51 -93
46 -102 -3 -5 2 -11 10 -14 9 -3 13 -10 10 -15 -3 -5 -11 -6 -17 -2 -7 4 -4
-6 7 -21 10 -16 13 -25 7 -22 -13 9 -14 -8 -2 -32 5 -9 14 -29 21 -44 7 -15
17 -25 22 -22 4 3 8 1 8 -4 0 -7 14 -16 63 -40 4 -2 7 4 7 13 0 9 -4 14 -8 11
-4 -2 -14 -1 -22 4 -11 7 -9 9 9 7 14 -1 26 -9 29 -20 4 -15 11 -17 45 -13 46
7 91 32 82 46 -4 6 1 10 9 10 8 0 20 9 26 20 6 11 8 20 5 20 -3 0 -1 9 5 19 8
16 6 20 -8 24 -16 4 -16 5 1 6 11 1 17 9 17 26 0 17 -4 23 -14 19 -8 -3 -12
-13 -9 -22 4 -15 3 -15 -6 -2 -8 11 -7 18 4 26 8 6 12 14 8 18 -4 4 1 4 10 0
19 -7 21 15 2 28 -6 5 -5 8 2 8 15 0 46 57 39 69 -3 4 1 16 8 26 10 14 15 15
21 5 5 -8 4 -11 -2 -7 -6 4 -13 0 -17 -8 -3 -8 -1 -17 4 -20 6 -4 10 -2 10 4
0 11 32 31 59 36 30 6 94 16 126 21 16 2 31 8 33 14 2 6 8 8 13 4 5 -3 9 -2 9
3 0 15 -15 28 -34 31 -17 3 -18 2 -7 -12 9 -11 10 -16 2 -16 -6 0 -11 5 -11
10 0 6 0 13 0 18 0 14 41 9 49 -6 11 -20 27 -8 50 36 20 40 22 123 2 130 -6 2
-11 13 -11 23 0 11 -4 18 -9 14 -5 -3 -12 3 -16 14 -12 38 -114 56 -175 31
-31 -13 -84 -76 -75 -90 3 -6 2 -10 -2 -10 -12 0 -15 -50 -3 -51 6 -1 16 -2
23 -3 17 -2 15 -51 -3 -52 -8 -1 -20 -2 -26 -3 -6 0 -16 -18 -22 -39 -9 -28
-23 -45 -57 -66 -24 -16 -42 -32 -40 -37 9 -13 -16 -22 -28 -10 -9 9 -7 11 8
5 16 -6 18 -5 7 7 -8 9 -15 10 -22 3 -6 -6 -37 -9 -71 -7 -46 2 -59 0 -53 -9
4 -7 -3 -3 -15 10 -12 12 -27 22 -34 22 -18 0 -77 59 -77 76 0 8 -4 13 -8 10
-8 -5 -7 48 3 137 11 107 67 160 180 173 73 8 103 19 133 47 59 55 69 137 26
204 -35 53 -73 74 -133 75 -96 0 -158 -62 -165 -165 -6 -72 -13 -94 -43 -135
-32 -43 -84 -63 -165 -64 -131 -1 -194 58 -205 195 -10 118 -97 191 -202 167z
m1185 -412 c-1 -17 -7 -22 -26 -22 -16 0 -26 6 -28 17 -2 9 1 17 7 17 6 0 8
-6 5 -13 -3 -8 3 -13 16 -13 12 0 19 5 16 12 -4 10 2 24 9 24 1 0 2 -10 1 -22z
m-111 2 c3 -5 1 -10 -4 -10 -6 0 -11 5 -11 10 0 6 2 10 4 10 3 0 8 -4 11 -10z
m145 6 c0 -3 -4 -8 -10 -11 -5 -3 -10 -1 -10 4 0 6 5 11 10 11 6 0 10 -2 10
-4z m-179 -47 c-5 -13 -10 -19 -10 -12 -1 15 10 45 15 40 3 -2 0 -15 -5 -28z
m65 -2 c-3 -24 -32 -35 -48 -19 -6 6 -2 17 13 30 26 25 40 20 35 -11z m130 21
c4 -6 3 -8 -4 -4 -7 4 -10 -1 -9 -14 1 -21 12 -27 20 -10 3 6 4 5 3 -2 -4 -20
-29 -15 -32 6 -4 31 9 46 22 24z m-109 -30 c-3 -8 -6 -5 -6 6 -1 11 2 17 5 13
3 -3 4 -12 1 -19z m70 0 c-3 -8 -6 -5 -6 6 -1 11 2 17 5 13 3 -3 4 -12 1 -19z
m-27 2 c0 -5 -4 -10 -10 -10 -5 0 -10 5 -10 10 0 6 5 10 10 10 6 0 10 -4 10
-10z m-140 -30 c0 -5 -4 -10 -10 -10 -5 0 -10 5 -10 10 0 6 5 10 10 10 6 0 10
-4 10 -10z m120 0 c0 -5 -4 -10 -10 -10 -5 0 -10 5 -10 10 0 6 5 10 10 10 6 0
10 -4 10 -10z m40 0 c0 -5 -4 -10 -10 -10 -5 0 -10 5 -10 10 0 6 5 10 10 10 6
0 10 -4 10 -10z m85 0 c3 -6 -1 -7 -9 -4 -18 7 -21 14 -7 14 6 0 13 -4 16 -10z
m-169 -40 c-1 -23 -9 -25 -34 -11 -9 6 -12 11 -6 11 5 0 15 -5 21 -11 9 -9 12
-7 10 9 -1 21 -27 41 -27 22 0 -6 -5 -10 -11 -10 -8 0 -8 4 1 15 16 20 48 3
46 -25z m159 20 c4 -7 -2 -9 -17 -5 -19 5 -24 2 -25 -16 -2 -17 1 -19 10 -10
6 6 15 11 21 11 5 0 1 -6 -9 -14 -30 -21 -40 -5 -26 42 2 7 41 0 46 -8z m-255
-10 c0 -5 -5 -10 -11 -10 -5 0 -7 5 -4 10 3 6 8 10 11 10 2 0 4 -4 4 -10z m39
-35 c0 -5 -4 -3 -9 5 -5 8 -9 22 -9 30 0 16 17 -16 18 -35z m78 23 c-3 -8 -6
-5 -6 6 -1 11 2 17 5 13 3 -3 4 -12 1 -19z m43 12 c0 -5 -4 -10 -10 -10 -5 0
-10 5 -10 10 0 6 5 10 10 10 6 0 10 -4 10 -10z m27 -12 c-3 -8 -6 -5 -6 6 -1
11 2 17 5 13 3 -3 4 -12 1 -19z m-12 -39 c0 -19 -6 -24 -24 -24 -16 0 -25 6
-27 19 -4 27 1 33 28 31 17 -1 23 -8 23 -26z m100 21 c3 -5 1 -10 -4 -10 -6 0
-11 5 -11 10 0 6 2 10 4 10 3 0 8 -4 11 -10z m-215 -20 c-8 -5 -19 -10 -25
-10 -5 0 -3 5 5 10 8 5 20 10 25 10 6 0 3 -5 -5 -10z m50 0 c0 -5 -5 -10 -11
-10 -5 0 -7 5 -4 10 3 6 8 10 11 10 2 0 4 -4 4 -10z m95 0 c3 -5 1 -10 -4 -10
-6 0 -11 5 -11 10 0 6 2 10 4 10 3 0 8 -4 11 -10z m45 -6 c0 -8 5 -12 10 -9 6
3 10 4 10 1 0 -16 -21 -13 -30 4 -7 13 -7 20 0 20 5 0 10 -7 10 -16z m-170
-14 c0 -5 -4 -10 -10 -10 -5 0 -10 5 -10 10 0 6 5 10 10 10 6 0 10 -4 10 -10z
m166 -37 c-3 -4 -6 -1 -6 6 0 7 -4 10 -8 7 -4 -2 -9 5 -9 16 -2 21 -2 21 14
-1 8 -12 12 -25 9 -28z m-199 21 c-3 -3 -12 -4 -19 -1 -8 3 -5 6 6 6 11 1 17
-2 13 -5z m70 0 c-3 -3 -12 -4 -19 -1 -8 3 -5 6 6 6 11 1 17 -2 13 -5z m90 0
c-3 -3 -12 -4 -19 -1 -8 3 -5 6 6 6 11 1 17 -2 13 -5z m-207 -8 c0 -3 -4 -8
-10 -11 -5 -3 -10 -1 -10 4 0 6 5 11 10 11 6 0 10 -2 10 -4z m58 -27 c2 -8 0
-10 -5 -4 -12 15 -44 18 -41 4 2 -6 -4 -14 -12 -16 -13 -4 -13 -3 0 6 8 6 11
11 7 11 -5 0 -5 4 -2 10 9 14 48 6 53 -11z m79 9 c8 -7 10 -16 4 -26 -19 -34
-80 -17 -61 17 10 20 38 24 57 9z m-597 -8 c0 -5 -10 -15 -22 -21 l-23 -12 20
21 c23 24 25 25 25 12z m440 -10 c0 -5 -4 -10 -10 -10 -5 0 -10 5 -10 10 0 6
5 10 10 10 6 0 10 -4 10 -10z m-427 -15 c-3 -9 -8 -14 -10 -11 -3 3 -2 9 2 15
9 16 15 13 8 -4z m480 0 c-3 -9 -8 -14 -10 -11 -3 3 -2 9 2 15 9 16 15 13 8
-4z m38 -12 c13 -16 12 -17 -3 -4 -16 12 -18 11 -18 -4 0 -10 -3 -16 -6 -12
-6 6 2 37 9 37 3 0 11 -8 18 -17z m-498 -26 c-3 -5 5 -6 18 -3 21 6 22 6 6 -4
-21 -14 -30 -8 -34 23 -2 17 -1 19 6 7 5 -8 7 -18 4 -23z m387 18 c0 -8 -4
-15 -10 -15 -5 0 -7 7 -4 15 4 8 8 15 10 15 2 0 4 -7 4 -15z m60 -10 c0 -2 -5
-7 -12 -11 -7 -4 -8 -3 -4 4 4 7 1 12 -8 12 -9 0 -16 5 -16 10 0 7 6 7 20 0
11 -6 20 -13 20 -15z m-520 9 c0 -8 -19 -13 -24 -6 -3 5 1 9 9 9 8 0 15 -2 15
-3z m439 -37 c0 -9 -2 -9 -5 0 -3 7 -13 9 -22 6 -14 -4 -14 -3 -2 5 16 12 30
7 29 -11z m-364 -15 c-3 -3 -11 0 -18 7 -9 10 -8 11 6 5 10 -3 15 -9 12 -12z
m41 1 c-2 -9 -8 -19 -14 -21 -7 -2 -9 -9 -6 -14 4 -7 2 -8 -4 -4 -17 10 -15
26 3 26 9 0 12 6 9 15 -4 8 -2 15 4 15 6 0 9 -8 8 -17z m274 7 c0 -5 -5 -10
-11 -10 -5 0 -7 5 -4 10 3 6 8 10 11 10 2 0 4 -4 4 -10z m23 -15 c-3 -9 -8
-14 -10 -11 -3 3 -2 9 2 15 9 16 15 13 8 -4z m-237 -31 c3 -16 2 -26 -1 -23
-3 4 -8 19 -11 35 -3 16 -2 26 1 23 3 -4 8 -19 11 -35z m270 24 c5 -7 3 -8 -6
-3 -10 6 -12 4 -6 -11 5 -14 4 -16 -5 -7 -6 6 -8 16 -5 22 9 14 13 14 22 -1z
m-186 -8 c0 -5 -5 -10 -11 -10 -5 0 -7 5 -4 10 3 6 8 10 11 10 2 0 4 -4 4 -10z
m-113 -6 c-3 -3 -12 -4 -19 -1 -8 3 -5 6 6 6 11 1 17 -2 13 -5z m167 -9 c-4
-8 -8 -15 -10 -15 -2 0 -4 7 -4 15 0 8 4 15 10 15 5 0 7 -7 4 -15z m73 9 c-3
-3 -12 -4 -19 -1 -8 3 -5 6 6 6 11 1 17 -2 13 -5z m-170 -10 c-3 -3 -12 -4
-19 -1 -8 3 -5 6 6 6 11 1 17 -2 13 -5z m201 -19 c-3 -3 -9 2 -12 12 -6 14 -5
15 5 6 7 -7 10 -15 7 -18z m-265 -12 c-1 -13 4 -19 17 -19 11 0 20 6 20 13 0
16 16 17 26 1 4 -6 3 -8 -3 -5 -6 4 -13 1 -16 -6 -8 -22 -52 -13 -50 9 1 13
-5 20 -18 21 -18 2 -19 0 -7 -15 12 -15 11 -16 -4 -3 -22 17 -14 32 15 27 15
-2 21 -10 20 -23z m125 9 c2 -7 9 -9 14 -6 6 4 8 2 4 -4 -3 -6 -2 -13 4 -17 5
-3 10 1 10 9 0 9 5 16 10 16 7 0 7 -6 0 -20 -12 -22 -36 -17 -45 9 -3 9 -14
17 -25 18 -13 1 -18 -2 -14 -9 4 -7 2 -8 -5 -4 -6 4 -9 12 -6 17 8 12 48 5 53
-9z m117 -13 c0 -19 -6 -24 -25 -24 -18 0 -25 6 -26 20 -1 29 5 35 29 31 16
-2 22 -10 22 -27z m-140 -18 c-3 -6 -10 -9 -15 -6 -5 3 -8 -3 -7 -14 1 -14 8
-19 21 -18 15 1 20 -4 20 -22 0 -14 -6 -26 -14 -29 -9 -2 -11 0 -5 5 19 16 14
42 -8 40 -16 -2 -21 4 -22 23 0 15 5 24 13 23 6 -2 12 2 12 9 0 6 3 9 6 5 3
-3 3 -11 -1 -16z m-137 -16 c-3 -3 -9 2 -12 12 -6 14 -5 15 5 6 7 -7 10 -15 7
-18z m19 -17 c-3 -8 -6 -5 -6 6 -1 11 2 17 5 13 3 -3 4 -12 1 -19z m70 0 c-3
-8 -6 -5 -6 6 -1 11 2 17 5 13 3 -3 4 -12 1 -19z m88 12 c13 -6 15 -9 5 -9 -8
0 -22 4 -30 9 -18 12 -2 12 25 0z m-115 -10 c0 -5 -4 -10 -10 -10 -5 0 -10 5
-10 10 0 6 5 10 10 10 6 0 10 -4 10 -10z m197 4 c-3 -3 -12 -4 -19 -1 -8 3 -5
6 6 6 11 1 17 -2 13 -5z m-37 -14 c0 -5 -4 -10 -10 -10 -5 0 -10 5 -10 10 0 6
5 10 10 10 6 0 10 -4 10 -10z m-180 -20 c0 -5 -4 -10 -10 -10 -5 0 -10 5 -10
10 0 6 5 10 10 10 6 0 10 -4 10 -10z m40 1 c0 -5 9 -11 21 -14 12 -3 18 -10
15 -16 -3 -5 1 -12 9 -14 11 -3 10 -4 -2 -3 -10 1 -17 7 -16 13 1 6 -9 14 -22
17 -24 6 -35 26 -15 26 6 0 10 -4 10 -9z m110 -1 c0 -5 -4 -10 -10 -10 -5 0
-10 5 -10 10 0 6 5 10 10 10 6 0 10 -4 10 -10z m65 -14 c0 -9 7 -21 15 -26 8
-5 11 -10 6 -10 -5 0 -18 7 -28 17 -17 15 -18 15 -18 -6 0 -12 4 -20 9 -16 6
3 15 -4 21 -15 7 -13 7 -20 0 -20 -5 0 -10 7 -10 15 0 8 -6 14 -12 13 -8 -2
-13 7 -13 22 0 15 5 24 13 23 14 -3 16 13 2 20 -6 3 -5 4 2 3 7 -2 13 -10 13
-20z m-42 -1 c-3 -9 -8 -14 -10 -11 -3 3 -2 9 2 15 9 16 15 13 8 -4z m-193
-20 c0 -8 -4 -15 -10 -15 -5 0 -7 7 -4 15 4 8 8 15 10 15 2 0 4 -7 4 -15z m40
5 c0 -5 -4 -10 -10 -10 -5 0 -10 5 -10 10 0 6 5 10 10 10 6 0 10 -4 10 -10z
m39 -34 c-3 -3 -11 5 -18 17 -13 21 -12 21 5 5 10 -10 16 -20 13 -22z m88 28
c-3 -3 -12 -4 -19 -1 -8 3 -5 6 6 6 11 1 17 -2 13 -5z m-112 -45 c0 -18 -6
-24 -25 -26 -21 -2 -22 -1 -5 5 27 10 31 38 5 38 -13 0 -19 -5 -15 -14 2 -7 0
-10 -5 -7 -6 3 -10 1 -10 -6 0 -7 -3 -10 -6 -7 -12 13 16 45 38 43 17 -1 23
-8 23 -26z m119 2 c0 -14 5 -21 19 -21 17 0 18 2 6 18 -13 15 -12 16 4 3 21
-17 9 -35 -19 -29 -12 2 -18 11 -16 24 2 14 -4 20 -18 21 -18 2 -19 -1 -10
-13 8 -8 8 -14 2 -14 -12 0 -23 25 -15 34 3 3 15 4 27 2 14 -2 21 -10 20 -25z
m-60 1 c2 -4 0 -14 -6 -22 -8 -12 -9 -11 -4 3 5 15 2 17 -17 12 -17 -5 -19 -4
-7 4 18 13 27 14 34 3z m31 -62 c5 1 11 -4 13 -12 3 -11 2 -11 -6 0 -5 8 -13
12 -18 10 -5 -1 -10 8 -11 22 -2 24 -2 24 5 2 4 -13 11 -23 17 -22z m29 11
c-2 -3 -12 3 -22 13 -16 17 -16 18 5 5 12 -7 20 -15 17 -18z m-87 13 c-3 -3
-12 -4 -19 -1 -8 3 -5 6 6 6 11 1 17 -2 13 -5z m123 -18 c0 -2 -7 -7 -16 -10
-8 -3 -12 -2 -9 4 6 10 25 14 25 6z"/>
<path d="M1675 1080 c-18 -19 -17 -20 1 -20 13 0 20 7 21 20 1 11 0 20 -1 20
-2 0 -11 -9 -21 -20z"/>
<path d="M1743 958 c1 -10 8 -18 17 -18 9 0 16 8 17 18 1 11 -5 18 -17 18 -12
0 -18 -7 -17 -18z"/>
<path d="M1700 889 c0 -5 0 -12 0 -16 0 -5 9 -9 20 -9 11 -1 20 3 20 7 0 5 0
12 0 17 0 4 -9 8 -20 8 -11 1 -20 -3 -20 -7z"/>
<path d="M1463 721 c-1 -9 6 -17 16 -18 9 -1 17 6 18 16 1 9 -6 17 -16 18 -9
1 -17 -6 -18 -16z"/>
<path d="M1578 973 c9 -3 10 -9 2 -18 -8 -9 -5 -12 13 -12 34 0 33 32 -1 34
-15 1 -21 -1 -14 -4z"/>
</g>
</svg>
